<?xml version="1.0" encoding="UTF-8"?>
<svg width="73px" height="74px" viewBox="0 0 73 74" version="1.1" xmlns="http://www.w3.org/2000/svg" xmlns:xlink="http://www.w3.org/1999/xlink">
    <title>Instagram</title>
    <defs>
        <filter x="-15.4%" y="-15.4%" width="130.9%" height="130.9%" filterUnits="objectBoundingBox" id="filter-1">
            <feOffset dx="2" dy="2" in="SourceAlpha" result="shadowOffsetOuter1"></feOffset>
            <feGaussianBlur stdDeviation="1.5" in="shadowOffsetOuter1" result="shadowBlurOuter1"></feGaussianBlur>
            <feColorMatrix values="0 0 0 0 0   0 0 0 0 0   0 0 0 0 0  0 0 0 0.5 0" type="matrix" in="shadowBlurOuter1" result="shadowMatrixOuter1"></feColorMatrix>
            <feMerge>
                <feMergeNode in="shadowMatrixOuter1"></feMergeNode>
                <feMergeNode in="SourceGraphic"></feMergeNode>
            </feMerge>
        </filter>
    </defs>
    <g id="Page-1" stroke="none" stroke-width="1" fill="none" fill-rule="evenodd">
        <g id="Desktop-HD-Copy-2" transform="translate(-1341.000000, -916.000000)" fill="#FFFFFF" fill-rule="nonzero">
            <g id="Instagram" filter="url(#filter-1)" transform="translate(1341.000000, 917.000000)">
                <g id="Group" transform="translate(1.000000, 0.000000)">
                    <path d="M49.5530907,22.2838147 C48.4511227,18.9745666 45.5786593,17.0037255 42.011956,17.000024 C36.0025569,17.000024 29.9931577,17.000024 23.9874318,17.000024 C23.0753267,16.9979001 22.168364,17.1368108 21.2986297,17.4118661 C18.0110917,18.5149488 16.0202027,21.368256 16.0128563,24.9128284 C15.9957146,30.9699781 15.9957146,37.0246764 16.0128563,43.0769235 C15.9442371,45.6449101 17.1681352,48.0758452 19.2710085,49.548342 C20.6493235,50.5349666 22.3119727,51.0436915 24.0057979,50.9970573 C27.0031511,50.9970573 30.0005042,50.9970573 32.9978573,50.9970573 L41.9568576,50.9970573 C42.8982958,51.0195276 43.8365316,50.8789608 44.7301439,50.5815628 C47.9993158,49.4159721 49.9865315,46.5994343 49.9902047,43.047508 C49.9902047,37.0062917 50.0122441,30.9650755 49.9902047,24.9238592 C49.9825821,24.026441 49.8351032,23.1357101 49.5530907,22.2838147 Z M32.9721447,44.6580087 C28.6616645,44.6580087 24.7760412,42.0576171 23.1285583,38.0703683 C21.4810754,34.0831195 22.3964927,29.4949901 25.4476172,26.4470985 C28.4987417,23.3992068 33.0841209,22.4923681 37.06392,24.1497719 C41.0437191,25.8071757 43.6334208,29.7021066 43.6245255,34.0169376 C43.5942774,39.8898637 38.8391863,44.6399165 32.9721447,44.6580087 L32.9721447,44.6580087 Z M44.0873292,25.6114475 C43.0036074,25.608455 42.0285349,24.9518888 41.6172574,23.9482219 C41.2059798,22.944555 41.4395954,21.7916963 42.2090566,21.0277788 C42.9785178,20.2638614 44.1320978,20.0395189 45.1313269,20.4594703 C46.130556,20.8794217 46.7784002,21.8608585 46.7724985,22.9456643 C46.7485777,24.4165001 45.5568256,25.5996659 44.0873292,25.6114475 L44.0873292,25.6114475 Z" id="Shape"></path>
                    <path d="M33.5041869,0 C19.9545633,-0.00151786499 7.73829134,8.28123267 2.55203855,20.985856 C-2.63421424,33.6904793 0.230948951,48.3148872 9.81145097,58.039455 C19.391953,67.7640229 33.8009798,70.6735639 46.3193429,65.4113068 C58.8377061,60.1490497 67,47.7513598 67,33.999503 C67,15.2235614 52.0040118,0.00207239973 33.5041869,0 Z M54.2916316,44.2819134 C54.2657489,44.4282689 54.2509589,44.578377 54.2139837,44.7247325 C53.9329724,45.8205222 53.7998617,46.9763552 53.337672,48.0045963 C51.2670621,52.5528742 47.71005,54.9883794 42.7627713,55.0559281 C36.5953117,55.145993 30.4241546,55.082197 24.2529976,55.0746916 C21.9073859,55.1097751 19.6115407,54.3869542 17.6972986,53.0107041 C14.3917178,50.6164786 12.7352298,47.3253568 12.7241373,43.2086399 C12.7068822,37.0542045 12.7068822,30.90102 12.7241373,24.7490863 C12.7164245,23.954071 12.7907805,23.1604222 12.9459883,22.3811298 C13.9775958,17.6001842 16.843172,14.5492354 21.4872543,13.2357889 C22.0936472,13.0631645 22.7333178,13.0031212 23.3360132,12.8867873 L43.6353855,12.8867873 C44.0606,12.9580887 44.4932096,13.0031212 44.9110291,13.0969388 C49.6216667,14.173965 52.6425387,17.0673002 53.9329724,21.7919552 C54.1030582,22.4073987 54.1622185,23.0528639 54.273144,23.6683074 L54.2916316,44.2819134 Z" id="Shape"></path>
                    <path d="M33,27 C29.1340068,27 26,30.1340068 26,34 C26,37.8659932 29.1340068,41 33,41 C36.8659932,41 40,37.8659932 40,34 C40,30.1340068 36.8659932,27 33,27 Z" id="Path"></path>
                </g>
            </g>
        </g>
    </g>
</svg>